<?xml version="1.0" standalone="no"?>
<!DOCTYPE svg PUBLIC "-//W3C//DTD SVG 20010904//EN"
 "http://www.w3.org/TR/2001/REC-SVG-20010904/DTD/svg10.dtd">
<svg version="1.0" xmlns="http://www.w3.org/2000/svg"
 width="161.000000pt" height="483.000000pt" viewBox="0 0 161.000000 483.000000"
 preserveAspectRatio="xMidYMid meet">

<g transform="translate(0.000000,483.000000) scale(0.100000,-0.100000)"
fill="#000000" stroke="none">
<path d="M770 4745 c-19 -14 -53 -53 -77 -87 -49 -70 -55 -113 -27 -194 11
-33 13 -49 5 -57 -17 -17 -14 -146 3 -153 8 -3 17 -21 21 -41 3 -20 13 -46 22
-59 8 -13 14 -38 13 -56 -3 -52 -3 -54 48 -110 26 -29 53 -62 61 -73 14 -20
-9 4 -85 88 -38 43 -44 46 -53 30 -5 -11 -31 -24 -63 -32 -29 -7 -73 -23 -98
-36 -25 -13 -70 -30 -100 -39 -66 -20 -136 -83 -150 -136 -5 -19 -19 -118 -31
-220 -17 -148 -20 -220 -16 -357 5 -203 11 -218 82 -228 25 -4 45 -12 45 -19
0 -6 -7 -47 -15 -91 -9 -44 -20 -138 -26 -210 -6 -71 -23 -193 -39 -270 -15
-77 -30 -192 -34 -255 -6 -118 -14 -154 -91 -403 -21 -64 -35 -123 -32 -131 3
-7 23 -16 44 -20 61 -10 65 -15 76 -122 15 -148 12 -266 -9 -406 -4 -24 -3
-40 1 -35 9 8 45 -20 45 -36 0 -5 -13 -7 -29 -4 l-29 6 -4 -77 c-3 -56 -1 -79
9 -85 7 -4 13 -13 13 -19 0 -9 -3 -9 -12 0 -23 23 -29 12 -8 -15 19 -24 20
-28 6 -31 -9 -2 -16 -6 -16 -8 0 -11 64 -60 99 -76 26 -12 31 -17 15 -17 -11
-1 -25 -6 -30 -11 -7 -7 -22 0 -47 24 -20 19 -39 31 -42 26 -2 -4 -4 -41 -4
-83 l1 -75 31 -5 c18 -4 42 -9 54 -13 39 -11 25 10 -19 28 -51 22 -44 34 11
17 32 -9 49 -9 86 1 64 18 65 30 3 30 -51 0 -78 12 -78 33 0 5 12 6 28 2 15
-3 50 -10 79 -14 48 -6 52 -5 62 17 6 12 11 32 11 42 0 16 -6 19 -30 16 -17
-2 -30 1 -30 6 0 6 8 8 18 6 24 -7 42 15 42 50 0 15 4 32 9 37 16 18 54 230
55 318 2 83 4 89 33 120 17 17 35 48 40 67 l9 35 98 3 98 3 -6 -28 c-27 -126
-68 -747 -50 -741 5 1 19 -4 32 -11 25 -13 77 -7 88 11 4 7 -4 8 -25 3 -19 -4
-31 -3 -31 3 0 6 -8 13 -17 15 -17 4 -17 5 0 6 24 1 21 16 -5 34 -13 8 -19 19
-15 23 4 5 22 -7 39 -25 27 -29 35 -32 67 -26 70 12 111 28 111 43 0 14 -15
13 -72 -4 -32 -10 -20 32 18 66 34 29 35 34 24 55 -10 19 -10 28 -1 38 16 20
4 43 -35 68 -19 12 -33 26 -32 31 4 12 104 48 112 40 3 -3 6 3 6 13 0 10 -7
23 -17 30 -15 11 -14 15 10 47 22 29 29 52 38 136 9 88 9 104 -5 124 -9 12
-16 28 -16 34 0 7 37 30 83 53 48 23 102 58 126 82 36 37 51 44 113 56 39 7
74 15 77 18 11 11 -23 173 -44 210 -57 101 -101 327 -115 595 -6 113 -15 243
-20 290 -15 127 -13 310 3 314 120 33 175 49 187 56 23 11 52 67 66 129 17 73
3 365 -20 409 -8 16 -20 56 -25 90 -5 33 -19 80 -31 103 -26 53 -92 116 -140
136 -160 67 -261 116 -270 132 -9 17 -34 -25 -55 -93 -11 -34 -13 -36 -14 -15
-1 14 12 53 29 85 16 32 30 73 30 89 0 17 10 60 22 98 16 51 26 67 40 67 12 0
16 4 12 11 -3 6 -2 14 2 18 5 3 18 25 28 48 20 45 15 79 -9 69 -16 -6 -30 10
-16 18 5 4 19 35 31 71 19 57 20 71 10 121 -23 111 -125 183 -261 183 -65 1
-80 -3 -109 -24z m167 -146 c5 -5 25 -12 44 -14 65 -9 128 -113 101 -168 -7
-15 -11 -17 -12 -7 -1 8 -15 26 -33 40 -26 21 -43 25 -102 26 -38 1 -91 5
-116 9 -30 5 -54 3 -69 -5 l-23 -12 23 32 24 33 -22 -5 c-20 -6 -22 -2 -22 32
0 32 4 39 23 43 46 9 173 7 184 -4z m-226 -126 c-10 -17 -10 -16 -11 3 0 23
13 41 18 25 2 -6 -1 -18 -7 -28z m-10 -46 c-10 -9 -11 -8 -5 6 3 10 9 15 12
12 3 -3 0 -11 -7 -18z m201 -39 c3 -23 20 -29 93 -32 17 0 35 -8 42 -16 10
-13 14 -10 23 17 7 18 16 30 22 27 11 -7 0 -66 -14 -75 -5 -3 -10 -20 -10 -37
-1 -21 -5 -29 -14 -25 -8 3 -14 9 -14 14 0 5 -11 9 -25 9 -14 0 -25 -4 -25
-10 0 -5 -9 -10 -20 -10 -13 0 -20 7 -20 20 0 11 5 20 10 20 17 0 11 26 -10
45 -22 20 -26 14 -9 -17 10 -19 9 -20 -12 -15 -13 4 -43 7 -66 7 l-42 0 32 50
c35 54 54 63 59 28z m-72 -25 c-23 -9 -40 -37 -29 -47 16 -17 10 -32 -17 -44
-14 -7 -23 -8 -19 -2 3 5 -1 10 -9 10 -10 0 -13 6 -9 16 4 10 0 20 -10 26 -10
5 -17 17 -17 26 0 14 11 17 63 19 34 1 55 -1 47 -4z m67 -169 c-3 -3 -12 -4
-19 -1 -8 3 -5 6 6 6 11 1 17 -2 13 -5z m-19 -64 c20 0 31 -4 27 -10 -9 -14
-83 -6 -98 10 -10 10 -7 11 13 6 14 -3 40 -6 58 -6z m82 -289 c0 -11 -18 -38
-40 -61 -30 -31 -40 -37 -40 -23 0 20 14 45 24 44 21 -3 28 2 37 29 13 35 19
38 19 11z m-92 -103 c-3 -7 -11 -13 -18 -13 -7 0 -15 6 -17 13 -3 7 4 12 17
12 13 0 20 -5 18 -12z m-8 -85 c-6 -21 -14 -111 -17 -201 -4 -113 -9 -160 -16
-153 -14 14 6 320 24 375 16 49 24 30 9 -21z m20 -73 c0 -5 -4 -10 -10 -10 -5
0 -10 5 -10 10 0 6 5 10 10 10 6 0 10 -4 10 -10z m-3 -186 c-9 -9 -28 6 -21
18 4 6 10 6 17 -1 6 -6 8 -13 4 -17z m488 -21 c-19 -13 -35 -17 -35 -9 0 12
33 35 42 30 7 -5 4 -12 -7 -21z m-65 9 c0 -5 -12 -14 -27 -21 -28 -13 -28 -13
-9 8 20 22 36 27 36 13z m90 -27 c0 -8 -10 -19 -21 -26 -12 -6 -19 -7 -17 -2
3 4 8 16 11 26 8 21 27 23 27 2z m-90 -15 c0 -14 -49 -44 -58 -35 -4 3 4 15
17 26 26 21 41 24 41 9z m-80 -25 c-7 -9 -15 -13 -18 -10 -3 2 1 11 8 20 7 9
15 13 18 10 3 -2 -1 -11 -8 -20z m100 -13 c0 -15 -24 -32 -44 -32 -20 0 -19 2
4 20 27 21 40 25 40 12z m-542 -13 c-15 -8 -18 -24 -18 -81 0 -44 -4 -68 -9
-62 -5 5 -11 19 -13 30 -3 21 -5 21 -57 8 -49 -13 -56 -13 -80 3 -14 10 -34
20 -44 23 -10 3 -17 10 -15 15 3 10 38 13 156 14 43 1 52 4 52 19 0 20 18 42
35 42 5 0 2 -5 -7 -11z m582 -8 c0 -5 -7 -11 -15 -15 -15 -5 -20 5 -8 17 9 10
23 9 23 -2z m-1030 -1939 c20 -18 20 -19 -2 -18 -24 1 -40 15 -32 28 7 12 13
10 34 -10z m-20 -82 c0 -5 -4 -10 -10 -10 -5 0 -10 5 -10 10 0 6 5 10 10 10 6
0 10 -4 10 -10z m35 -39 c18 -7 15 -10 -20 -27 -22 -10 -43 -20 -47 -22 -15
-7 -8 21 9 40 17 19 27 21 58 9z m32 -101 c13 0 9 -5 -11 -15 -27 -14 -31 -14
-52 6 -31 29 -21 43 16 24 16 -8 37 -15 47 -15z m648 -50 c-3 -5 -12 -10 -18
-10 -7 0 -6 4 3 10 19 12 23 12 15 0z m-709 -42 c3 -11 3 -23 -1 -26 -8 -8
-35 26 -35 45 0 19 28 4 36 -19z m647 -25 c-7 -2 -21 -2 -30 0 -10 3 -4 5 12
5 17 0 24 -2 18 -5z m-508 -71 c-29 -25 -57 -23 -87 7 -17 15 -14 16 48 16
l65 0 -26 -23z m-170 -52 c19 -30 33 -41 61 -46 34 -6 36 -8 19 -20 -20 -15
-81 -19 -88 -6 -13 21 -35 112 -27 112 6 0 21 -18 35 -40z m191 -45 c18 -14
18 -14 -8 -15 -27 0 -43 12 -31 24 9 9 17 8 39 -9z m484 1 c0 -3 -14 -30 -30
-60 -23 -42 -27 -54 -14 -49 14 5 15 3 5 -15 -7 -12 -14 -22 -16 -22 -6 0
-110 111 -114 122 -2 7 6 8 23 4 17 -4 35 -1 49 9 19 13 97 22 97 11z m-490
-55 c0 -18 -73 -66 -94 -63 -26 5 -86 41 -86 52 0 5 21 7 48 4 26 -3 58 -1 72
5 32 13 60 14 60 2z m373 -78 c60 -38 42 -57 -30 -31 -27 10 -33 17 -33 41 0
20 4 26 13 21 6 -4 29 -18 50 -31z m-577 -88 c18 -14 17 -14 -13 -15 -23 0
-33 5 -33 15 0 19 21 19 46 0z"/>
<path d="M767 4562 c-9 -2 -15 -8 -12 -13 8 -12 45 -12 45 0 0 13 -12 18 -33
13z"/>
<path d="M1002 889 c-7 -11 -11 -24 -8 -27 10 -9 28 15 24 32 -2 14 -5 13 -16
-5z"/>
<path d="M914 555 c-18 -14 -17 -14 13 -15 39 0 65 9 57 21 -8 14 -48 11 -70
-6z"/>
<path d="M760 475 c0 -82 2 -91 34 -144 19 -31 52 -92 74 -136 44 -88 78 -126
134 -149 46 -20 89 -12 120 21 20 21 23 35 22 91 -1 67 -18 117 -66 184 -10
15 -24 42 -31 61 -7 19 -24 48 -38 65 -26 30 -27 31 -70 18 -45 -14 -89 -7
-89 14 0 6 -12 16 -27 22 -16 7 -36 18 -45 26 -17 14 -18 10 -18 -73z"/>
<path d="M365 524 c-33 -17 -58 -23 -75 -19 -14 4 -40 8 -57 9 -28 2 -33 -1
-32 -18 0 -12 3 -15 6 -8 6 16 43 15 67 -3 22 -17 66 -20 66 -5 0 6 10 10 23
10 13 0 28 5 35 12 9 9 12 9 12 -3 0 -22 -74 -79 -102 -79 -13 1 -40 7 -61 14
-37 14 -39 13 -47 -10 -7 -16 -17 -24 -34 -24 -14 0 -27 -4 -30 -9 -3 -4 6 -6
19 -3 14 2 25 0 25 -6 0 -23 -32 -97 -46 -105 -8 -4 -12 -12 -9 -17 3 -5 -4
-28 -15 -50 -14 -28 -23 -69 -27 -126 l-6 -84 111 0 111 0 29 63 c19 39 35 97
43 148 6 46 18 93 25 104 7 11 15 54 19 95 3 41 8 90 11 108 6 38 4 38 -61 6z"/>
</g>
</svg>
